<svg xmlns="http://www.w3.org/2000/svg" width="267" height="38" viewBox="0 0 267 38" fill="none"><path d="M37.8185 5.02671H45.532C49.1607 5.02671 52.2051 6.64585 52.2051 10.0835C52.2051 13.5211 49.8488 14.9682 46.1436 14.9682H41.207V20.2079H46.1436C49.8187 20.2079 52.2051 21.7451 52.2051 26.1111C52.2051 29.3248 49.2372 30.8019 45.532 30.8019H37.8185V5.02671ZM47.1975 0H32.1338V36.1235H47.1975C54.1274 36.1235 58.1902 31.0258 58.1902 26.1083C58.1902 19.0556 53.6659 17.6249 53.6659 17.6249C53.6659 17.6249 57.7342 15.2194 57.7342 10.0807C57.7315 2.63213 51.4816 0.00819127 47.1975 0Z" fill="#144AE9"></path><path d="M149.782 0H129.566C124.31 4.53797 122.535 11.1374 122.535 18.0781C122.535 25.0189 124.307 31.621 129.566 36.159H149.856V15.6644H132.914V21.0379H144.253V30.5671H133.135C129.681 26.9766 128.7 22.5315 128.7 18.0836C128.7 13.6357 129.681 9.18788 133.135 5.59464H149.725L149.782 0Z" fill="#144AE9"></path><path d="M179.51 30.3023H161.088L161.093 5.93594H179.51V0H154.941V36.2437H179.51V30.6463" fill="#144AE9"></path><path d="M176.454 15.6023H164.284V21.0386H176.454V15.6023Z" fill="#144AE9"></path><path d="M82.7329 0V23.1103C82.7329 29.2429 78.8393 31.4818 75.3716 31.4818C71.904 31.4818 68.0131 29.2429 68.0131 23.1103V0H62.2383V23.1103C62.2383 41.6799 88.5132 41.6799 88.5132 23.1103V0H82.7383" fill="#144AE9"></path><path d="M102.807 21.0352H106.425L114.409 36.1181H121.623L113.082 20.7512C115.6 20.7512 120.285 16.9969 120.285 10.5285C120.285 4.06014 115.545 0 109.707 0H93.9473V36.1208H100.159V5.18235H109.107C112.35 5.18235 114.622 7.47863 114.622 10.5312C114.622 13.5839 112.35 15.659 108.959 15.659H102.805V21.0352H102.807Z" fill="#144AE9"></path><path d="M191.58 21.0352H195.198L203.182 36.1181H210.395L201.855 20.7512C204.375 20.7512 209.057 16.9969 209.057 10.5285C209.057 4.06014 204.317 0 198.48 0H182.72V36.1208H188.931V5.18235H197.879C201.123 5.18235 203.392 7.47863 203.392 10.5312C203.392 13.5839 201.12 15.659 197.729 15.659H191.574V21.0352H191.58Z" fill="#144AE9"></path><path d="M235.156 0H222.839C216.944 0 212.149 4.79736 212.149 10.6923C212.149 16.5873 216.944 20.855 222.839 20.855H226.279C228.81 20.855 230.872 22.8973 230.872 25.4312C230.872 27.965 228.81 30.3651 226.279 30.3651H213.015V36.1208H226.279C232.174 36.1208 236.969 31.3234 236.969 25.4312C236.969 19.5389 232.174 14.7579 226.279 14.7579H222.839C220.308 14.7579 218.246 13.2262 218.246 10.6951C218.246 8.16397 220.308 6.1025 222.839 5.75847H235.156V0Z" fill="#144AE9"></path><path d="M240.558 15.2248H260.065L262.631 9.59471H240.561V15.2248H240.558ZM240.558 0V5.63287H264.433L267 0H240.558ZM240.558 24.8168H255.693L258.257 19.184H240.556V24.8168H240.558Z" fill="#144AE9"></path><path d="M26.4414 9.59198H4.36868L6.93528 15.2248H26.4414V9.59198ZM0 0L2.56387 5.63014H26.4387V0H0ZM26.4414 19.184H8.73736L11.304 24.8168H26.4414V19.184Z" fill="#144AE9"></path></svg>